<?xml version="1.0" standalone="no"?><!DOCTYPE svg PUBLIC "-//W3C//DTD SVG 1.1//EN" "http://www.w3.org/Graphics/SVG/1.1/DTD/svg11.dtd"><svg t="1650470716980" class="icon" viewBox="0 0 1024 1024" version="1.1" xmlns="http://www.w3.org/2000/svg" p-id="1736" xmlns:xlink="http://www.w3.org/1999/xlink" width="16" height="16"><defs><style type="text/css">@font-face { font-family: feedback-iconfont; src: url("//at.alicdn.com/t/font_1031158_u69w8yhxdu.woff2?t=1630033759944") format("woff2"), url("//at.alicdn.com/t/font_1031158_u69w8yhxdu.woff?t=1630033759944") format("woff"), url("//at.alicdn.com/t/font_1031158_u69w8yhxdu.ttf?t=1630033759944") format("truetype"); }
</style></defs><path d="M103.148983 912.896C-26.313874 799.012571-42.222446 204.873143 103.148983 87.771429 248.410697-29.257143 813.036983-29.257143 926.518126 87.771429c113.481143 117.065143 129.389714 628.370286 0 793.234285-129.389714 164.864-694.016 145.737143-823.442286 31.817143zM182.874697 256v146.285714a73.142857 73.142857 0 0 0 73.142857 73.142857h146.285715a73.142857 73.142857 0 0 0 73.142857-73.142857V256a73.142857 73.142857 0 0 0-73.142857-73.142857H256.017554a73.142857 73.142857 0 0 0-73.142857 73.142857z m365.714286 0v146.285714a73.142857 73.142857 0 0 0 73.142857 73.142857h146.285714a73.142857 73.142857 0 0 0 73.142857-73.142857V256a73.142857 73.142857 0 0 0-73.142857-73.142857h-146.285714a73.142857 73.142857 0 0 0-73.142857 73.142857z m-292.571429 281.344a73.142857 73.142857 0 0 0-73.142857 73.142857v146.285714a73.142857 73.142857 0 0 0 73.142857 73.142858h146.285715a73.142857 73.142857 0 0 0 73.142857-73.142858v-146.285714a73.142857 73.142857 0 0 0-73.142857-73.142857H256.017554z m292.571429 73.142857v146.285714a73.142857 73.142857 0 0 0 73.142857 73.142858h146.285714a73.142857 73.142857 0 0 0 73.142857-73.142858v-146.285714a73.142857 73.142857 0 0 0-73.142857-73.142857h-146.285714a73.142857 73.142857 0 0 0-73.142857 73.142857z" fill="#FF579A" p-id="1737"></path></svg>