<?xml version="1.0" standalone="no"?><!DOCTYPE svg PUBLIC "-//W3C//DTD SVG 1.1//EN" "http://www.w3.org/Graphics/SVG/1.1/DTD/svg11.dtd"><svg t="1650470687270" class="icon" viewBox="0 0 1024 1024" version="1.1" xmlns="http://www.w3.org/2000/svg" p-id="1292" xmlns:xlink="http://www.w3.org/1999/xlink" width="16" height="16"><defs><style type="text/css">@font-face { font-family: feedback-iconfont; src: url("//at.alicdn.com/t/font_1031158_u69w8yhxdu.woff2?t=1630033759944") format("woff2"), url("//at.alicdn.com/t/font_1031158_u69w8yhxdu.woff?t=1630033759944") format("woff"), url("//at.alicdn.com/t/font_1031158_u69w8yhxdu.ttf?t=1630033759944") format("truetype"); }
</style></defs><path d="M103.148983 912.896C-26.313874 799.012571-42.222446 204.873143 103.148983 87.771429 248.410697-29.257143 813.036983-29.257143 926.518126 87.771429c113.481143 117.065143 129.389714 628.370286 0 793.234285-129.389714 164.864-694.016 145.737143-823.442286 31.817143z m171.154286-101.266286h66.413714a73.142857 73.142857 0 0 0 73.142857-73.142857v-36.571428a73.142857 73.142857 0 0 1 73.142857-73.142858h50.029714a73.142857 73.142857 0 0 1 73.142858 73.142858v36.571428a73.142857 73.142857 0 0 0 73.142857 73.142857H749.73184a73.142857 73.142857 0 0 0 73.142857-73.142857v-291.254857a73.142857 73.142857 0 0 0-30.976-59.757714l-237.714286-167.789715a73.142857 73.142857 0 0 0-84.333714 0l-237.714286 167.789715A73.142857 73.142857 0 0 0 201.160411 447.268571v291.254858a73.142857 73.142857 0 0 0 73.142858 73.142857z" fill="#FF579A" p-id="1293"></path></svg>