<?xml version="1.0" standalone="no"?><!DOCTYPE svg PUBLIC "-//W3C//DTD SVG 1.1//EN" "http://www.w3.org/Graphics/SVG/1.1/DTD/svg11.dtd"><svg t="1650470698966" class="icon" viewBox="0 0 1024 1024" version="1.1" xmlns="http://www.w3.org/2000/svg" p-id="1440" xmlns:xlink="http://www.w3.org/1999/xlink" width="16" height="16"><defs><style type="text/css">@font-face { font-family: feedback-iconfont; src: url("//at.alicdn.com/t/font_1031158_u69w8yhxdu.woff2?t=1630033759944") format("woff2"), url("//at.alicdn.com/t/font_1031158_u69w8yhxdu.woff?t=1630033759944") format("woff"), url("//at.alicdn.com/t/font_1031158_u69w8yhxdu.ttf?t=1630033759944") format("truetype"); }
</style></defs><path d="M103.135086 87.771429c-145.334857 117.101714-129.426286 711.241143 0 825.124571 129.389714 113.883429 694.016 133.010286 823.405714-31.853714 129.389714-164.864 113.481143-676.169143 0-793.234286C813.059657-29.257143 248.433371-29.257143 103.135086 87.771429zM508.821943 546.011429a201.142857 201.142857 0 1 1 0-402.285715 201.142857 201.142857 0 0 1 0 402.285715zM822.8608 713.142857c0 70.692571-139.190857 128-310.857143 128s-310.857143-57.307429-310.857143-128S340.337371 585.142857 512.003657 585.142857s310.857143 57.307429 310.857143 128z" fill="#FF579A" p-id="1441"></path></svg>